<svg xmlns="http://www.w3.org/2000/svg" viewBox="0 0 160 160" role="img" aria-labelledby="title desc">
  <title id="title">Membership QR</title>
  <desc id="desc">QR code graphic for membership check-in.</desc>
  <rect width="160" height="160" fill="#ffffff"/>

  <rect x="8" y="8" width="42" height="42" rx="4" fill="#0b1726"/>
  <rect x="14" y="14" width="30" height="30" rx="3" fill="#ffffff"/>
  <rect x="20" y="20" width="18" height="18" rx="2" fill="#0b1726"/>

  <rect x="110" y="8" width="42" height="42" rx="4" fill="#0b1726"/>
  <rect x="116" y="14" width="30" height="30" rx="3" fill="#ffffff"/>
  <rect x="122" y="20" width="18" height="18" rx="2" fill="#0b1726"/>

  <rect x="8" y="110" width="42" height="42" rx="4" fill="#0b1726"/>
  <rect x="14" y="116" width="30" height="30" rx="3" fill="#ffffff"/>
  <rect x="20" y="122" width="18" height="18" rx="2" fill="#0b1726"/>

  <rect x="62" y="62" width="8" height="8" fill="#0b1726"/>
  <rect x="74" y="62" width="8" height="8" fill="#0b1726"/>
  <rect x="86" y="62" width="8" height="8" fill="#0b1726"/>
  <rect x="98" y="62" width="8" height="8" fill="#0b1726"/>

  <rect x="62" y="74" width="8" height="8" fill="#0b1726"/>
  <rect x="86" y="74" width="8" height="8" fill="#0b1726"/>
  <rect x="110" y="74" width="8" height="8" fill="#0b1726"/>
  <rect x="122" y="74" width="8" height="8" fill="#0b1726"/>

  <rect x="62" y="86" width="8" height="8" fill="#0b1726"/>
  <rect x="74" y="86" width="8" height="8" fill="#0b1726"/>
  <rect x="98" y="86" width="8" height="8" fill="#0b1726"/>
  <rect x="110" y="86" width="8" height="8" fill="#0b1726"/>
  <rect x="134" y="86" width="8" height="8" fill="#0b1726"/>

  <rect x="62" y="98" width="8" height="8" fill="#0b1726"/>
  <rect x="86" y="98" width="8" height="8" fill="#0b1726"/>
  <rect x="98" y="98" width="8" height="8" fill="#0b1726"/>
  <rect x="122" y="98" width="8" height="8" fill="#0b1726"/>
  <rect x="134" y="98" width="8" height="8" fill="#0b1726"/>

  <rect x="62" y="110" width="8" height="8" fill="#0b1726"/>
  <rect x="74" y="110" width="8" height="8" fill="#0b1726"/>
  <rect x="98" y="110" width="8" height="8" fill="#0b1726"/>
  <rect x="110" y="110" width="8" height="8" fill="#0b1726"/>
  <rect x="122" y="110" width="8" height="8" fill="#0b1726"/>

  <rect x="74" y="122" width="8" height="8" fill="#0b1726"/>
  <rect x="86" y="122" width="8" height="8" fill="#0b1726"/>
  <rect x="98" y="122" width="8" height="8" fill="#0b1726"/>
  <rect x="122" y="122" width="8" height="8" fill="#0b1726"/>
  <rect x="134" y="122" width="8" height="8" fill="#0b1726"/>

  <rect x="62" y="134" width="8" height="8" fill="#0b1726"/>
  <rect x="86" y="134" width="8" height="8" fill="#0b1726"/>
  <rect x="110" y="134" width="8" height="8" fill="#0b1726"/>
  <rect x="122" y="134" width="8" height="8" fill="#0b1726"/>
</svg>
